# xmcd
#
# Track frame offsets: 
#        150
#        28363
#        47252
#        85359
#        107283
#        141508
#        157994
#        190997
#        211111
#        248004
#
# Disc length: 3548 seconds
#
# Revision: 0
# Processed by: cddbd v1.5.2PL0 Copyright (c) Steve Scherf et al.
# Submitted via: ExactAudioCopy v1.0b4
#
DISCID=7e0dda0a
DTITLE=Joe Houston and Otis Grand - The Return Of Honk (Remix)
DYEAR=2016
DGENRE=Blues
TTITLE0=The Return Of Honk
TTITLE1=Camilla's Hop
TTITLE2=Mama Don't
TTITLE3=Fruit Boots
TTITLE4=Big Legged Woman
TTITLE5=They Killed Crazy Horses
TTITLE6=Castle Rock
TTITLE7=Why Oh Why
TTITLE8=Blues For T-Bone
TTITLE9=Down But Not Out
EXTD=
EXTT0=
EXTT1=
EXTT2=
EXTT3=
EXTT4=
EXTT5=
EXTT6=
EXTT7=
EXTT8=
EXTT9=
PLAYORDER=
